<?xml version="1.0" encoding="UTF-8" standalone="no"?>
<!DOCTYPE svg PUBLIC "-//W3C//DTD SVG 1.1//EN" "http://www.w3.org/Graphics/SVG/1.1/DTD/svg11.dtd">
<svg width="100%" height="100%" viewBox="0 0 48 48" version="1.1" xmlns="http://www.w3.org/2000/svg" xmlns:xlink="http://www.w3.org/1999/xlink" xml:space="preserve" xmlns:serif="http://www.serif.com/" style="fill-rule:evenodd;clip-rule:evenodd;stroke-linejoin:round;stroke-miterlimit:2;">
    <path d="M37,47L11,47C8.791,47 7,45.209 7,43L7,5C7,2.791 8.791,1 11,1L30,1C30.32,1 30.593,1.161 30.776,1.395L40.605,11.224C40.84,11.407 41,11.68 41,12L41,43C41,45.209 39.209,47 37,47ZM31,4.381L31,11L37.619,11L31,4.381ZM39,13L30,13C29.447,13 29,12.552 29,12L29,3L11,3C9.896,3 9,3.896 9,5L9,43C9,44.104 9.896,45 11,45L37,45C38.104,45 39,44.104 39,43L39,13Z" style="fill:white;"/>
    <g transform="matrix(0.0631975,0,0,0.0631975,7.70825,11.9622)">
        <path d="M168,163.608L168,163.61L169.446,168.305L234.935,144.302L233,139.608L233,139.606L223,111.424L223,111.422L221.363,106.727L155.724,130.73L162.699,149.518L168,163.608Z" style="fill:white;fill-rule:nonzero;"/>
        <g transform="matrix(0.3429,0.9394,-0.9394,0.3429,241.359,-32.283)">
            <rect x="133.754" y="146.375" width="20.001" height="20" style="fill:white;"/>
        </g>
        <path d="M413.545,78.9L400.015,41.833L234.175,112.452L241.209,131.721L413.545,78.9Z" style="fill:white;fill-rule:nonzero;"/>
        <path d="M205.707,165.698L171.899,178.039L182.63,259.285L283.646,222.412L239.514,153.357L205.707,165.698Z" style="fill:white;fill-rule:nonzero;"/>
        <path d="M101.333,341.119C120.632,341.119 136.333,325.418 136.333,306.119C136.333,286.82 120.632,271.119 101.333,271.119C82.034,271.119 66.333,286.818 66.333,306.117C66.333,325.418 82.035,341.119 101.333,341.119Z" style="fill:white;fill-rule:nonzero;"/>
        <path d="M131.333,351.119C112.034,351.119 96.333,366.818 96.333,386.117C96.333,405.418 112.034,421.119 131.333,421.119C150.632,421.119 166.333,405.418 166.333,386.119C166.333,366.82 150.632,351.119 131.333,351.119Z" style="fill:white;fill-rule:nonzero;"/>
        <path d="M146.333,305.998C146.333,320.123 139.786,333 129.573,341L401.975,341C406.951,341 410.999,337.07 410.999,332.094L410.999,280.143C410.999,275.166 406.95,271 401.975,271L129.574,271C139.787,279 146.333,291.875 146.333,305.998Z" style="fill:white;fill-rule:nonzero;"/>
        <path d="M159.574,351C169.786,359 176.333,371.875 176.333,385.998C176.333,400.123 169.786,413 159.573,421L431.975,421C436.951,421 440.999,417.07 440.999,412.094L440.999,360.143C440.999,355.166 436.95,351 431.975,351L159.574,351Z" style="fill:white;fill-rule:nonzero;"/>
        <path d="M476,460L36,460C33.239,460 31,462.238 31,465C31,467.762 33.239,470 36,470L476,470C478.762,470 481,467.762 481,465C481,462.238 478.762,460 476,460Z" style="fill:white;fill-rule:nonzero;"/>
    </g>
</svg>
